<?xml version="1.0" encoding="utf-8"?>
<!-- Generator: Adobe Illustrator 26.0.1, SVG Export Plug-In . SVG Version: 6.00 Build 0)  -->
<svg version="1.1" id="Layer_1" xmlns="http://www.w3.org/2000/svg" xmlns:xlink="http://www.w3.org/1999/xlink" x="0px" y="0px"
	 viewBox="0 0 87 39" style="enable-background:new 0 0 87 39;" xml:space="preserve">
<style type="text/css">
	.st0{fill:#960048;}
	.st1{fill:#FFA400;}
	.st2{fill:#FFFFFF;}
</style>
<g>
	<g>
		<path class="st0" d="M55.4736,8.3139c-0.3569,0.0702-2.6631-0.3593-2.6631-0.3593s1.718,0.8904,1.7599,1.1231
			c0.0438,0.2466-0.6797,1.7203-0.6797,1.7203s1.222-1.247,1.596-1.5597c0.266-0.2224,0.787-0.2191,1.1779-0.1568
			c0.3637,0.055,2.5861,0.4203,5.1172-0.8888c1.6535-0.8517,1.6611-1.0229,1.6611-1.0229s-1.2666-0.8245-3.4498-0.503
			C57.5604,7.0242,55.8288,8.242,55.4736,8.3139"/>
		<path class="st0" d="M21.9084,36.0961c-0.4235,0.1154-2.7286-0.4154-2.7286-0.4154s1.7092,1.0493,1.8595,1.2516
			C21.1868,37.134,20.7241,39,20.7241,39s1.0695-1.4664,1.4832-1.915c0.2537-0.2668,0.8877-0.2028,1.1978-0.1557
			c0.3057,0.0476,3.3518,0.6168,6.1776-1.4029c1.8467-1.3215,1.8184-1.572,1.8184-1.572s-1.734-1.1887-4.359-0.6626
			C24.4136,33.8167,22.3306,35.9791,21.9084,36.0961"/>
		<path class="st1" d="M73.3382,7.7749c-0.613,0.0923-3.7561-1.0325-3.7561-1.0325s2.224,1.7505,2.3991,2.0598
			c0.1761,0.3065-0.784,2.8497-0.784,2.8497s1.7441-1.8774,2.3963-2.4373c0.3988-0.3362,1.2827-0.1399,1.7027-0.0226
			c0.4233,0.1214,4.6005,1.4255,8.898-0.9386C86.9965,6.7114,87,6.3491,87,6.3491s-2.2346-1.9501-6.0005-1.6493
			C77.2331,5.0015,73.9504,7.684,73.3382,7.7749"/>
		<path class="st1" d="M3.0826,31.4934C2.4739,31.6652,0,30.6744,0,30.6744s2.4063,1.4174,2.4945,1.6673
			c0.0897,0.2491-1.5029,2.5631-1.5029,2.5631s1.5903-1.3738,2.2427-1.9063c0.579-0.4704,1.9764-0.644,2.7898-0.5752
			c0.7841,0.0702,4.0686,0.5235,8.2076-2.2323c2.7041-1.8009,2.6788-2.1259,2.6788-2.1259s-2.388-1.4296-6.1493-0.6095
			C7.0004,28.2806,3.6905,31.3208,3.0826,31.4934"/>
		<path class="st1" d="M34.2266,29.4309c-0.392,0.0386-1.7904-0.846-1.7904-0.846s1.3099,1.1365,1.3362,1.2995
			c0.0265,0.1623-1.2047,1.394-1.2047,1.394s1.1241-0.6577,1.5829-0.9113c0.4055-0.2213,1.2777-0.1701,1.7682-0.0384
			c0.4688,0.1304,2.4241,0.7769,5.261-0.4418c1.8501-0.7962,1.8715-0.9987,1.8715-0.9987s-1.2967-1.1397-3.6848-1.06
			C36.9792,27.9107,34.6179,29.3945,34.2266,29.4309"/>
		<g>
			<path class="st2" d="M13.5728,21.8675c-0.5981,0.2847-1.3103,0.4274-1.993,0.4274c-2.6332,0-4.8946-1.3937-4.8946-4.9672
				c0-3.5708,2.3341-5.0635,4.9659-5.0635c0.6241,0,1.3498,0.0855,1.9217,0.2559v1.6653c-0.5851-0.242-1.2259-0.3846-1.9386-0.3846
				c-1.8485,0-3.1708,0.9399-3.1708,3.4858c0,2.5898,1.4364,3.4573,3.1877,3.4573c0.7398,0,1.3237-0.1146,1.9217-0.3691V21.8675z"/>
			<path class="st2" d="M20.3887,18.7374c0,2.0927-1.2107,3.5427-3.0735,3.5427c-1.8365,0-3.0601-1.45-3.0601-3.5427
				c0-2.1183,1.2236-3.5133,3.0601-3.5133C19.178,15.2241,20.3887,16.6191,20.3887,18.7374 M15.949,18.7374
				c0,1.4381,0.6256,2.1485,1.41,2.1485c0.7666,0,1.3509-0.6536,1.3509-2.1485c0-1.4231-0.6266-2.1354-1.4246-2.1354
				C16.5181,16.602,15.949,17.2433,15.949,18.7374"/>
			<path class="st2" d="M30.1593,22.0806h-1.5651v-4.2537c0-0.8825-0.3404-1.2078-1.0538-1.2078
				c-0.4113,0-1.0244,0.1682-1.0244,0.4968c0.0139,0.1576,0.0431,0.3547,0.0431,0.5703v4.3945H24.994v-4.2537
				c0-0.8961-0.3551-1.2078-0.9662-1.2078c-0.5276,0-1.0543,0.1413-1.0543,0.6242v4.8373h-1.564v-6.5155
				c1.38,0,1.8206-0.3136,2.8455-0.3136c0.9265,0,1.2944,0.2148,1.6362,0.5125c0.512-0.3291,1.1667-0.5125,2.007-0.5125
				c1.3512,0,2.2612,0.6127,2.2612,2.3616V22.0806z"/>
			<path class="st2" d="M31.3088,25.1963c0.029-1.4919,0.0573-2.5448,0.0573-4.4092V15.45c0.968,0,1.5795-0.2259,2.5322-0.2259
				c1.7233,0,3.1608,1.2353,3.1608,3.5569c0,2.2323-1.538,3.4567-2.9597,3.4567c-0.613,0-0.9681-0.141-1.1814-0.3008v3.2594H31.3088
				z M33.7706,16.5603c-0.5265,0-0.8526,0.227-0.8526,0.4548v3.4156c0,0.2425,0.3706,0.4551,0.8526,0.4551
				c0.9965,0,1.5667-0.6536,1.5667-2.1333C35.3373,17.2294,34.7671,16.5603,33.7706,16.5603"/>
			<path class="st2" d="M41.3075,17.6861v-0.2575c0-0.5392-0.3728-0.8683-1.04-0.8683c-0.6853,0-1.3674,0.1293-2.0778,0.4548
				v-1.4631c0.7388-0.2172,1.409-0.3283,2.2046-0.3283c1.5378,0,2.4906,0.6253,2.4906,2.1896c0,1.0981-0.0422,2.0489-0.0422,3.1034
				c0,0.5553,0.0295,1.1645,0.0713,1.5238c-1.1406,0-1.7504,0.181-2.7186,0.181c-1.6499,0-2.4754-0.7668-2.4754-2.0608
				C37.7199,18.8379,38.8017,17.7578,41.3075,17.6861 M41.3075,18.8517c-1.2994,0.0422-1.965,0.4412-1.965,1.1947
				c0,0.5104,0.3985,0.8686,1.0098,0.8686c0.5671,0,0.8395-0.1571,0.8961-0.3582C41.2902,20.3461,41.3075,19.7032,41.3075,18.8517"
				/>
			<path class="st2" d="M44.0987,22.0806v-6.6603h1.4803v0.6277c0.3991-0.6277,1.0682-0.8411,1.7215-0.8411
				c0.285,0,0.5118,0.0299,0.7258,0.0577v1.6504c-0.2692-0.1277-0.6972-0.1851-1.0965-0.1851c-0.6397,0-1.2065,0.2572-1.2367,0.8128
				c-0.0269,1.1256-0.0269,2.8464-0.0269,4.5379H44.0987z"/>
			<path class="st2" d="M50.2405,15.4203h1.9213v1.367h-1.9213c0,1.4095-0.0139,2.3755-0.0139,3.4164
				c0,0.4968,0.2981,0.6974,0.8221,0.6974c0.4309,0,0.7701-0.0711,1.1131-0.257v1.3798c-0.4696,0.1726-0.953,0.2562-1.5222,0.2562
				c-1.1398,0-1.9785-0.5264-1.9785-1.7633v-6.3045l1.5794-0.9385V15.4203z"/>
			<path class="st2" d="M56.5586,17.6861v-0.2575c0-0.5392-0.3691-0.8683-1.0388-0.8683c-0.6863,0-1.3666,0.1293-2.0784,0.4548
				v-1.4631c0.7385-0.2172,1.4087-0.328,2.2069-0.328c1.5339,0,2.4889,0.625,2.4889,2.1899c0,1.0975-0.0416,2.0483-0.0416,3.1028
				c0,0.5553,0.027,1.1645,0.0713,1.5241c-1.1387,0-1.7509,0.1807-2.7189,0.1807c-1.6502,0-2.4767-0.7668-2.4767-2.0608
				C52.9714,18.8379,54.0551,17.7578,56.5586,17.6861 M56.5586,18.8517c-1.296,0.0422-1.9646,0.4412-1.9646,1.1947
				c0,0.5104,0.3993,0.8686,1.0116,0.8686c0.5673,0,0.8371-0.1571,0.8956-0.3582C56.5434,20.3461,56.5586,19.7032,56.5586,18.8517"
				/>
			<path class="st2" d="M68.12,22.0809h-1.5644v-4.254c0-0.8825-0.3406-1.207-1.0529-1.207c-0.4133,0-1.0241,0.1682-1.0241,0.496
				c0.0142,0.1576,0.0428,0.3547,0.0428,0.5703v4.3947h-1.5669v-4.254c0-0.8961-0.3544-1.2078-0.9658-1.2078
				c-0.5278,0-1.0529,0.1413-1.0529,0.6242v4.8376h-1.5661v-6.5163c1.3793,0,1.8222-0.313,2.8471-0.313
				c0.922,0,1.2936,0.2148,1.6366,0.5125c0.5112-0.3291,1.1673-0.5125,2.0062-0.5125c1.3483,0,2.2605,0.6127,2.2605,2.3608V22.0809z
				"/>
			<path class="st2" d="M75.2314,18.7374c0,2.0927-1.2094,3.5427-3.0742,3.5427c-1.8334,0-3.057-1.45-3.057-3.5427
				c0-2.1175,1.2236-3.5133,3.057-3.5133C74.022,15.2241,75.2314,16.6199,75.2314,18.7374 M70.7905,18.7374
				c0,1.4383,0.6261,2.1485,1.4093,2.1485c0.7712,0,1.3534-0.653,1.3534-2.1485c0-1.4223-0.6272-2.1354-1.4234-2.1354
				C71.3608,16.602,70.7905,17.2433,70.7905,18.7374"/>
			<path class="st2" d="M78.4866,15.2241c0.5265,0,0.9686,0.0406,1.5372,0.1963v1.4822c-0.6688-0.2706-1.139-0.3421-1.5936-0.3421
				c-0.5395,0-0.8814,0.2278-0.8814,0.5703c0,1.024,2.7881,0.9241,2.7881,2.9719c0,1.11-0.7976,2.1776-2.6473,2.1776
				c-0.5823,0-1.1812-0.0585-1.7357-0.2268v-1.3942c0.5404,0.1835,1.1814,0.2692,1.6371,0.2692
				c0.7538,0,1.1384-0.2842,1.1384-0.7246c0-1.1256-2.8038-0.9549-2.8038-2.9042C75.9256,16.02,76.8942,15.2241,78.4866,15.2241"/>
		</g>
		<g>
			<path class="st2" d="M61.1921,31.9066c0,1.3431-1.1624,2.1782-2.7652,2.1782c-0.8352,0-1.2304-0.0787-2.0542-0.0787v-7.607
				c0.8463,0,1.1956-0.1132,1.9191-0.1132c1.6366,0,2.4489,0.7897,2.4489,1.9302c0,0.7333-0.4628,1.4111-1.3657,1.6365
				C60.4699,30.0671,61.1921,30.9585,61.1921,31.9066z M57.3881,29.514c0.1241,0,0.2597,0,0.3844,0
				c1.3883,0,1.8732-0.5763,1.8732-1.208c0-0.677-0.4848-1.1397-1.4101-1.1397c-0.6438,0-0.7908,0.0789-0.8022,0.2591
				C57.3993,28.114,57.3881,29.006,57.3881,29.514z M58.4269,33.2159c0.9819,0,1.6483-0.5079,1.6483-1.3431
				c0-0.8242-0.6778-1.4669-2.0768-1.5007c-0.2151,0-0.4301,0-0.6103,0.0218v2.5394
				C57.3881,33.1256,57.6938,33.2159,58.4269,33.2159z"/>
			<path class="st2" d="M64.7154,30.5976v-0.2711c0-0.5637-0.3501-0.8689-1.0048-0.8689c-0.5189,0-1.0276,0.1135-1.5351,0.3498
				v-0.8912c0.5197-0.1924,1.0276-0.2937,1.6257-0.2937c1.1618,0,1.8737,0.4739,1.8737,1.6702c0,0.9026-0.0335,1.7157-0.0335,2.562
				c0,0.4516,0.0226,0.8239,0.0447,1.1174c-0.824,0-1.3431,0.1467-2.0201,0.1467c-1.2302,0-1.8625-0.6326-1.8625-1.5918
				C61.8035,31.4893,62.6612,30.6428,64.7154,30.5976z M64.7154,31.3429c-1.3094,0.0215-1.8742,0.3835-1.8742,1.1174
				c0,0.4731,0.3395,0.846,0.9378,0.846c0.5864,0,0.8343-0.1475,0.8798-0.3841C64.704,32.708,64.7154,32.1097,64.7154,31.3429z"/>
			<path class="st2" d="M67.575,30.0445v3.9617h-0.9593v-5.1016c1.0949,0,1.2416-0.2711,2.2798-0.2711
				c0.9707,0,1.8288,0.4745,1.8288,1.8061v3.5667H69.764V30.609c0-0.8125-0.383-1.1059-1.1175-1.1059
				C67.9915,29.5031,67.575,29.7628,67.575,30.0445z"/>
			<path class="st2" d="M74.1145,33.3063c0.328,0,0.5766-0.0338,0.8474-0.0787v0.8346c-0.3158,0.0675-0.5989,0.1018-0.8697,0.1018
				c-1.5916,0-2.6411-0.9252-2.6411-2.7765c0-1.6811,0.9364-2.765,2.6411-2.765c0.2937,0,0.5866,0.0338,0.8697,0.0787v0.9143
				c-0.2937-0.0901-0.5537-0.1239-0.8814-0.1239c-0.9585,0-1.5574,0.5423-1.5574,1.9073
				C72.5232,32.7417,73.1221,33.3063,74.1145,33.3063z"/>
			<path class="st2" d="M80.1812,31.3875c0,1.6365-0.9149,2.7765-2.3365,2.7765c-1.4229,0-2.337-1.14-2.337-2.7765
				c0-1.6474,0.9141-2.765,2.337-2.765C79.2663,28.6225,80.1812,29.7402,80.1812,31.3875z M76.558,31.3875
				c0,1.275,0.5758,1.9188,1.3205,1.9188c0.7222,0,1.253-0.5983,1.253-1.9188c0-1.2524-0.576-1.9071-1.3096-1.9071
				S76.558,30.0671,76.558,31.3875z"/>
		</g>
		<g>
			<g>
				<path class="st2" d="M83.1056,34.0195c-0.7625,0-1.3007-0.586-1.3007-1.3074c0-0.7388,0.5382-1.3191,1.3007-1.3191
					c0.7633,0,1.3088,0.5804,1.3088,1.3191C84.4145,33.4334,83.8689,34.0195,83.1056,34.0195z M83.0988,31.617
					c-0.6367,0-1.0489,0.4865-1.0489,1.0896c0,0.6043,0.4121,1.0913,1.0489,1.0913c0.6337,0,1.0445-0.487,1.0445-1.0913
					C84.1433,32.1034,83.7326,31.617,83.0988,31.617z M82.7686,33.5499h-0.2428v-1.7288c0.187,0,0.3103-0.024,0.4976-0.024
					c0.3337,0,0.5981,0.1658,0.5981,0.4826c0,0.2036-0.1094,0.3511-0.3106,0.444c-0.0163,0.0125-0.0215,0.0248-0.0215,0.0411
					c0,0.0136,0.0052,0.0362,0.0155,0.0512l0.4652,0.7339h-0.2649l-0.3819-0.5801c-0.077-0.1113-0.1157-0.1396-0.199-0.1396h-0.1557
					V33.5499z M82.9344,32.613c0.2829,0,0.4176-0.111,0.4176-0.3283c0-0.1761-0.1475-0.269-0.3637-0.269
					c-0.1353,0-0.2061,0.034-0.2107,0.0686c-0.009,0.1954-0.009,0.3794-0.009,0.5286H82.9344z"/>
			</g>
		</g>
	</g>
	<g>
		<g>
			<path class="st2" d="M12.1289,8.2657c-0.4856,0.215-0.9951,0.3285-1.5599,0.3285c-2.07,0-3.8682-1.0858-3.8682-3.9129
				c0-2.838,1.821-4.0594,3.8896-4.0594c0.4984,0,1.0974,0.068,1.5386,0.2259v1.0289c-0.4856-0.2036-1.0178-0.3049-1.5386-0.3049
				c-1.5934,0-2.781,0.7913-2.781,3.0416c0,2.262,1.2326,3.031,2.781,3.031c0.6007,0,1.0641-0.1021,1.5386-0.3168V8.2657z"/>
			<path class="st2" d="M13.2147,8.4241V3.1886h0.9272v0.5316c0.2954-0.4973,0.8823-0.7006,1.3924-0.7006
				c0.2598,0,0.4178,0.022,0.565,0.0561v1.0287c-0.2382-0.0787-0.4986-0.1127-0.7686-0.1127c-0.6114,0-1.1086,0.2262-1.1313,0.7464
				c-0.0227,0.9157-0.0227,2.2958-0.0227,3.6862H13.2147z"/>
			<path class="st2" d="M17.592,5.7555c-0.0117,0.0566-0.0117,0.181-0.0117,0.2265c0,1.1648,0.679,1.7753,1.6852,1.7753
				c0.3508,0,0.7912-0.0452,1.1764-0.2148v0.8479c-0.3962,0.1473-0.8707,0.1922-1.2336,0.1922
				c-1.5715,0-2.6685-0.8705-2.6685-2.8271c0-1.6512,1.0406-2.7253,2.466-2.7253c1.3456,0,1.8995,0.9165,1.8995,2.1036
				c0,0.1693-0.011,0.3729-0.045,0.6217H17.592z M19.6272,4.9644c0.1922,0,0.2604-0.0912,0.2604-0.2719
				c0-0.4861-0.3058-0.8253-0.939-0.8253c-0.8251,0-1.1648,0.5765-1.2662,1.0972H19.6272z M18.0447,2.5102
				c0.565-0.5768,1.0171-1.1873,1.4128-1.7644h1.097l-1.6059,1.7644H18.0447z"/>
			<path class="st2" d="M25.9344,0c-0.0218,1.3569-0.0449,2.5329-0.0449,4.0711v4.2853c-0.7802,0-1.1076,0.1924-1.9229,0.1924
				c-1.2883,0-2.4198-0.972-2.4198-2.7591c0-1.7642,1.1652-2.7596,2.3418-2.7596c0.5199,0,0.8933,0.1473,1.0397,0.3174V0H25.9344z
				 M24.0909,7.7006c0.5095,0,0.8374-0.181,0.8374-0.4069v-3.019c0-0.227-0.3506-0.3961-0.8374-0.3961
				c-0.9154,0-1.4698,0.6217-1.4698,1.9223C22.6211,7.1124,23.1755,7.7006,24.0909,7.7006z"/>
			<path class="st2" d="M28.2836,1.6057c0,0.3615-0.2485,0.622-0.6106,0.622c-0.3729,0-0.6328-0.2605-0.6328-0.622
				c0-0.3392,0.2598-0.5991,0.6328-0.5991C28.0351,1.0066,28.2836,1.2666,28.2836,1.6057z M28.2044,3.1886
				c-0.034,1.5834-0.0455,3.6075-0.0455,5.2356h-0.9611V3.1886H28.2044z"/>
			<path class="st2" d="M29.2639,3.1886V2.1711l0.9611-0.5882v1.6057h1.6397v0.8591h-1.6397c0,0.95-0.011,1.9343-0.011,3.0196
				c0,0.4864,0.2589,0.6674,0.7118,0.6674c0.3733,0,0.6792-0.0901,0.9389-0.2379v0.8259c-0.384,0.1807-0.7464,0.26-1.2096,0.26
				c-0.8031,0-1.3912-0.3958-1.3912-1.3118V4.0476V3.1886z"/>
			<path class="st2" d="M37.0685,5.8009c0,1.6392-0.9161,2.7817-2.3416,2.7817c-1.4245,0-2.3407-1.1425-2.3407-2.7817
				c0-1.6512,0.9162-2.7708,2.3407-2.7708C36.1524,3.0302,37.0685,4.1497,37.0685,5.8009z M33.4383,5.8009
				c0,1.278,0.5766,1.922,1.323,1.922c0.7241,0,1.2551-0.5991,1.2551-1.922c0-1.2554-0.5767-1.9112-1.3117-1.9112
				C33.9692,3.8898,33.4383,4.4777,33.4383,5.8009z"/>
		</g>
	</g>
</g>
</svg>
