<svg width="90" height="40" viewBox="0 0 90 40" fill="none" xmlns="http://www.w3.org/2000/svg">
<g id="logo-credito-compartamos">
<path id="Vector" d="M57.3885 8.45989C57.0208 8.53152 54.6343 8.09097 54.6343 8.09097C54.6343 8.09097 56.4116 9.00788 56.4548 9.24427C56.5017 9.49857 55.7518 11.0136 55.7518 11.0136C55.7518 11.0136 57.0172 9.73138 57.403 9.40903C57.6769 9.1798 58.2177 9.18338 58.6215 9.24785C58.9964 9.30516 61.2964 9.68123 63.9137 8.33453C65.6225 7.4606 65.6333 7.28152 65.6333 7.28152C65.6333 7.28152 64.3246 6.43625 62.0643 6.76576C59.548 7.13467 57.7562 8.38467 57.3885 8.45989Z" fill="#FFA300"/>
<path id="Vector_2" d="M22.665 37.0165C22.2288 37.1347 19.8423 36.5903 19.8423 36.5903C19.8423 36.5903 21.6124 37.6683 21.7674 37.8761C21.9188 38.0838 21.4393 40 21.4393 40C21.4393 40 22.5461 38.4921 22.9751 38.0337C23.2382 37.7579 23.8944 37.8259 24.2152 37.8725C24.5325 37.9226 27.6833 38.5065 30.607 36.4291C32.5176 35.0716 32.4888 34.8138 32.4888 34.8138C32.4888 34.8138 30.6935 33.5924 27.9789 34.1332C25.2607 34.6741 23.1049 36.8947 22.6686 37.0165" fill="#FFA300"/>
<path id="Vector_3" d="M75.8682 7.90473C75.2337 7.99785 71.9819 6.84456 71.9819 6.84456C71.9819 6.84456 74.282 8.64255 74.4622 8.96132C74.6425 9.27651 73.6511 11.8911 73.6511 11.8911C73.6511 11.8911 75.4572 9.9606 76.1313 9.38754C76.5423 9.04012 77.458 9.24427 77.8942 9.36605C78.334 9.49141 82.6529 10.8309 87.0979 8.40258C89.9964 6.8159 90 6.44341 90 6.44341C90 6.44341 87.6891 4.43768 83.7921 4.74928C79.895 5.06089 76.4991 7.81519 75.8682 7.91189" fill="#CE0058"/>
<path id="Vector_4" d="M3.19047 32.2851C2.55958 32.4606 0 31.4434 0 31.4434C0 31.4434 2.49109 32.9011 2.58121 33.1554C2.67494 33.4133 1.02744 35.7916 1.02744 35.7916C1.02744 35.7916 2.67134 34.3804 3.34909 33.8324C3.94753 33.3489 5.39315 33.1698 6.23673 33.2414C7.04787 33.313 10.4474 33.7787 14.7266 30.9456C17.5241 29.0938 17.4989 28.7607 17.4989 28.7607C17.4989 28.7607 15.0294 27.2923 11.136 28.134C7.24614 28.9828 3.82135 32.106 3.19407 32.2851" fill="#CE0058"/>
<path id="Vector_5" d="M35.4087 30.1648C35.0049 30.2042 33.5557 29.2944 33.5557 29.2944C33.5557 29.2944 34.9112 30.462 34.9364 30.6304C34.9652 30.7987 33.689 32.063 33.689 32.063C33.689 32.063 34.8535 31.3861 35.3257 31.1246C35.7439 30.8954 36.6488 30.9491 37.1535 31.0852C37.6402 31.2178 39.6626 31.884 42.5971 30.6304C44.5114 29.8138 44.533 29.6024 44.533 29.6024C44.533 29.6024 43.192 28.4312 40.7225 28.5136C38.253 28.5996 35.8088 30.1218 35.4051 30.1612" fill="#CE0058"/>
<path id="Vector_6" d="M14.0417 22.389C13.4217 22.6827 12.6862 22.8295 11.9796 22.8295C9.25423 22.8295 6.91455 21.3969 6.91455 17.7256C6.91455 14.0544 9.32993 12.5215 12.0517 12.5215C12.697 12.5215 13.4469 12.611 14.0381 12.783V14.495C13.4325 14.2443 12.7691 14.101 12.0337 14.101C10.1194 14.101 8.75312 15.0681 8.75312 17.6827C8.75312 20.2973 10.2384 21.2357 12.0517 21.2357C12.816 21.2357 13.4217 21.1175 14.0381 20.856V22.389H14.0417Z" fill="#CE0058"/>
<path id="Vector_7" d="M21.0929 19.1726C21.0929 21.3216 19.842 22.8152 17.9133 22.8152C15.9846 22.8152 14.748 21.3252 14.748 19.1726C14.748 17.0201 16.0134 15.5623 17.9133 15.5623C19.8131 15.5623 21.0929 16.995 21.0929 19.1726ZM16.5001 19.1726C16.5001 20.6519 17.1454 21.3825 17.9601 21.3825C18.7749 21.3825 19.3589 20.7092 19.3589 19.1726C19.3589 17.6361 18.71 16.9771 17.8844 16.9771C17.0589 16.9771 16.5037 17.6361 16.5037 19.1726" fill="#CE0058"/>
<path id="Vector_8" d="M31.2017 22.6075H29.583V18.2342C29.583 17.3281 29.2297 16.9914 28.4943 16.9914C28.0689 16.9914 27.4344 17.1633 27.4344 17.5C27.4488 17.6612 27.4777 17.8653 27.4777 18.0874V22.6039H25.859V18.2307C25.859 17.3102 25.4913 16.9878 24.8604 16.9878C24.316 16.9878 23.7681 17.1347 23.7681 17.6289V22.6003H22.1494V15.9026C23.577 15.9026 24.0312 15.5802 25.0947 15.5802C26.0537 15.5802 26.4322 15.8023 26.7891 16.1067C27.3191 15.7701 27.9968 15.5802 28.8656 15.5802C30.2644 15.5802 31.2053 16.2106 31.2053 18.0086V22.6003L31.2017 22.6075Z" fill="#CE0058"/>
<path id="Vector_9" d="M32.3877 25.8095C32.4165 24.2765 32.4454 23.1948 32.4454 21.2787V15.7915C33.4476 15.7915 34.0785 15.5587 35.0662 15.5587C36.8507 15.5587 38.336 16.8302 38.336 19.2156C38.336 21.601 36.7462 22.7686 35.2753 22.7686C34.6409 22.7686 34.2731 22.6218 34.0532 22.4606V25.8095H32.3877ZM34.9329 16.9341C34.3885 16.9341 34.0496 17.1669 34.0496 17.4033V20.9133C34.0496 21.164 34.4318 21.3825 34.9329 21.3825C35.9639 21.3825 36.5551 20.7092 36.5551 19.1905C36.5551 17.6719 35.9639 16.9377 34.9329 16.9377" fill="#CE0058"/>
<path id="Vector_10" d="M42.7341 18.091V17.8259C42.7341 17.2708 42.3484 16.9341 41.6598 16.9341C40.9713 16.9341 40.2466 17.0666 39.5112 17.4033V15.899C40.2755 15.6769 40.9676 15.5623 41.7932 15.5623C43.383 15.5623 44.3708 16.2034 44.3708 17.8116C44.3708 18.9398 44.3276 19.9176 44.3276 21.0029C44.3276 21.5723 44.36 22.1991 44.4033 22.568C43.2244 22.568 42.5935 22.7543 41.5913 22.7543C39.8861 22.7543 39.0317 21.9663 39.0317 20.6375C39.0317 19.3087 40.1493 18.1662 42.7413 18.0946M42.7413 19.2944C41.3966 19.3374 40.7081 19.7493 40.7081 20.5229C40.7081 21.0458 41.1191 21.4148 41.7536 21.4148C42.3412 21.4148 42.6224 21.2536 42.68 21.0458C42.7233 20.8309 42.7413 20.1683 42.7413 19.2944Z" fill="#CE0058"/>
<path id="Vector_11" d="M45.6218 22.6074V15.7629H47.1539V16.4076C47.5649 15.7629 48.2607 15.5444 48.9348 15.5444C49.2304 15.5444 49.4648 15.5766 49.6847 15.6053V17.303C49.4071 17.1705 48.9636 17.1132 48.5491 17.1132C47.8857 17.1132 47.3017 17.3782 47.2693 17.9477C47.2404 19.1046 47.2404 20.8739 47.2404 22.611H45.6182L45.6218 22.6074Z" fill="#CE0058"/>
<path id="Vector_12" d="M51.9741 15.7629H53.9605V17.1669H51.9741C51.9741 18.6175 51.9597 19.6096 51.9597 20.6769C51.9597 21.1891 52.2697 21.3933 52.8105 21.3933C53.2575 21.3933 53.6072 21.3216 53.9605 21.1282V22.5466C53.4738 22.7256 52.9763 22.808 52.3851 22.808C51.2062 22.808 50.3374 22.2672 50.3374 20.9957V14.5165L51.9705 13.553V15.7593L51.9741 15.7629Z" fill="#CE0058"/>
<path id="Vector_13" d="M58.5098 18.091V17.8259C58.5098 17.2708 58.1276 16.9341 57.4355 16.9341C56.7433 16.9341 56.0223 17.0666 55.2833 17.4033V15.899C56.0475 15.6769 56.7397 15.5623 57.5652 15.5623C59.1515 15.5623 60.1393 16.2034 60.1393 17.8116C60.1393 18.9398 60.096 19.9176 60.096 21.0029C60.096 21.5723 60.1248 22.1991 60.1681 22.568C58.9892 22.568 58.3548 22.7543 57.3562 22.7543C55.6474 22.7543 54.793 21.9663 54.793 20.6375C54.793 19.3087 55.9141 18.1662 58.5026 18.0946M58.5026 19.2944C57.1615 19.3374 56.4693 19.7493 56.4693 20.5229C56.4693 21.0458 56.8803 21.4148 57.5148 21.4148C58.1024 21.4148 58.38 21.2536 58.4413 21.0458C58.4845 20.8309 58.499 20.1683 58.499 19.2944" fill="#CE0058"/>
<path id="Vector_14" d="M70.4715 22.611H68.8529V18.2378C68.8529 17.3317 68.4996 16.9986 67.7641 16.9986C67.3351 16.9986 66.7042 17.1705 66.7042 17.5072C66.7187 17.6683 66.7475 17.8725 66.7475 18.0946V22.611H65.1288V18.2378C65.1288 17.3173 64.7611 16.995 64.1302 16.995C63.5859 16.995 63.0415 17.1418 63.0415 17.6361V22.6075H61.4229V15.9097C62.8505 15.9097 63.3083 15.5874 64.3682 15.5874C65.3235 15.5874 65.7056 15.8095 66.0625 16.1139C66.5925 15.7772 67.2702 15.5874 68.1391 15.5874C69.5342 15.5874 70.4787 16.2178 70.4787 18.0158V22.6075L70.4715 22.611Z" fill="#CE0058"/>
<path id="Vector_15" d="M77.8296 19.1726C77.8296 21.3216 76.5786 22.8152 74.6499 22.8152C72.7212 22.8152 71.4883 21.3252 71.4883 19.1726C71.4883 17.0201 72.7537 15.5623 74.6499 15.5623C76.5462 15.5623 77.8296 16.9986 77.8296 19.1726ZM73.2331 19.1726C73.2331 20.6519 73.882 21.3825 74.6932 21.3825C75.5043 21.3825 76.0919 20.7127 76.0919 19.1726C76.0919 17.6325 75.443 16.9771 74.6211 16.9771C73.7991 16.9771 73.2367 17.6361 73.2367 19.1726" fill="#CE0058"/>
<path id="Vector_16" d="M81.1966 15.5623C81.7409 15.5623 82.1988 15.6053 82.7864 15.7629V17.2851C82.0942 17.0057 81.6076 16.9341 81.1389 16.9341C80.5801 16.9341 80.2268 17.1669 80.2268 17.5215C80.2268 18.5745 83.1109 18.4706 83.1109 20.5766C83.1109 21.7192 82.2853 22.8152 80.371 22.8152C79.769 22.8152 79.1489 22.7543 78.5757 22.5824V21.1497C79.1345 21.3395 79.7978 21.4255 80.2701 21.4255C81.0488 21.4255 81.4489 21.1318 81.4489 20.6805C81.4489 19.5236 78.5469 19.6991 78.5469 17.697C78.5469 16.3825 79.5491 15.5623 81.1966 15.5623Z" fill="#CE0058"/>
<path id="Vector_17" d="M63.3046 32.7077C63.3046 34.0867 62.1005 34.9463 60.4422 34.9463C59.577 34.9463 59.1696 34.8639 58.3188 34.8639V27.0451C59.1949 27.0451 59.5554 26.9305 60.3052 26.9305C61.9996 26.9305 62.8396 27.7436 62.8396 28.9148C62.8396 29.6669 62.3601 30.3653 61.4264 30.5981C62.5584 30.8202 63.3046 31.7335 63.3046 32.7077ZM59.3679 30.2471H59.7645C61.1993 30.2471 61.704 29.6562 61.704 29.0043C61.704 28.3095 61.2029 27.8331 60.2439 27.8331C59.577 27.8331 59.4256 27.9155 59.4148 28.0981C59.3787 28.8073 59.3679 29.7242 59.3679 30.2436V30.2471ZM60.4422 34.0509C61.4588 34.0509 62.1474 33.5279 62.1474 32.6719C62.1474 31.8159 61.448 31.164 59.9988 31.1282C59.7753 31.1282 59.5554 31.1282 59.3679 31.1497V33.7607C59.3679 33.9577 59.6852 34.0509 60.4422 34.0509Z" fill="#CE0058"/>
<path id="Vector_18" d="M66.9494 31.3646V31.0852C66.9494 30.505 66.5889 30.1934 65.9111 30.1934C65.374 30.1934 64.8476 30.3116 64.3213 30.5516V29.6347C64.8584 29.4377 65.3848 29.3338 66.0012 29.3338C67.2053 29.3338 67.9408 29.8209 67.9408 31.0494C67.9408 31.9771 67.9047 32.8116 67.9047 33.6819C67.9047 34.1476 67.9299 34.5272 67.9516 34.8317C67.0972 34.8317 66.5636 34.9821 65.8606 34.9821C64.5881 34.9821 63.9355 34.3338 63.9355 33.3453C63.9355 32.2779 64.8224 31.4076 66.9494 31.361V31.3646ZM66.9494 32.1311C65.5939 32.1526 65.0098 32.5251 65.0098 33.2808C65.0098 33.7679 65.3595 34.1511 65.9796 34.1511C66.5997 34.1511 66.8412 34.0007 66.8881 33.7572C66.9349 33.5387 66.9458 32.9226 66.9458 32.1347L66.9494 32.1311Z" fill="#CE0058"/>
<path id="Vector_19" d="M69.9089 30.7951V34.8675H68.9175V29.6239C70.0495 29.6239 70.2009 29.3446 71.2752 29.3446C72.281 29.3446 73.1678 29.8317 73.1678 31.1999V34.8675H72.1728V31.3754C72.1728 30.5408 71.7763 30.24 71.0156 30.24C70.3379 30.24 69.9089 30.505 69.9089 30.7951Z" fill="#CE0058"/>
<path id="Vector_20" d="M76.6722 34.1476C77.0111 34.1476 77.2671 34.1117 77.5483 34.0652V34.9248C77.2202 34.9928 76.9282 35.0287 76.6506 35.0287C75.0031 35.0287 73.918 34.0759 73.918 32.1741C73.918 30.4441 74.8877 29.3302 76.6506 29.3302C76.9534 29.3302 77.2562 29.366 77.5483 29.4126V30.351C77.2454 30.2579 76.9751 30.2256 76.6362 30.2256C75.6448 30.2256 75.0247 30.7844 75.0247 32.1848C75.0247 33.5852 75.6448 34.144 76.6722 34.144V34.1476Z" fill="#CE0058"/>
<path id="Vector_21" d="M82.9486 32.1741C82.9486 33.8575 82.0005 35.0287 80.5332 35.0287C79.066 35.0287 78.1143 33.8575 78.1143 32.1741C78.1143 30.4907 79.0588 29.3302 80.5332 29.3302C82.0077 29.3302 82.9486 30.4799 82.9486 32.1741ZM79.1994 32.1741C79.1994 33.485 79.7942 34.1476 80.5657 34.1476C81.3372 34.1476 81.8635 33.5315 81.8635 32.1741C81.8635 30.8883 81.2687 30.2149 80.508 30.2149C79.7473 30.2149 79.1994 30.8166 79.1994 32.1741Z" fill="#CE0058"/>
<path id="Vector_22" d="M85.9731 34.8818C85.1836 34.8818 84.6284 34.2801 84.6284 33.5387C84.6284 32.7973 85.1872 32.1812 85.9731 32.1812C86.759 32.1812 87.3286 32.7794 87.3286 33.5387C87.3286 34.298 86.7662 34.8818 85.9731 34.8818ZM85.9659 32.414C85.3062 32.414 84.8808 32.9155 84.8808 33.5351C84.8808 34.1547 85.3062 34.6562 85.9659 34.6562C86.6256 34.6562 87.0474 34.1547 87.0474 33.5351C87.0474 32.9155 86.622 32.414 85.9659 32.414ZM85.6234 34.4019H85.3711V32.6254C85.5657 32.6254 85.6919 32.6003 85.8866 32.6003C86.2327 32.6003 86.5066 32.7722 86.5066 33.0946C86.5066 33.3023 86.3949 33.4563 86.1858 33.5494C86.1678 33.5638 86.1642 33.5745 86.1642 33.5924C86.1642 33.6067 86.1678 33.6282 86.1786 33.6461L86.6617 34.4019H86.3877L85.9911 33.8073C85.9118 33.6927 85.8722 33.664 85.7856 33.664H85.6234V34.4054V34.4019ZM85.7965 33.4384C86.0885 33.4384 86.2291 33.3238 86.2291 33.1017C86.2291 32.9191 86.0776 32.8259 85.8541 32.8259C85.7135 32.8259 85.6414 32.8617 85.6342 32.8976C85.6234 33.0981 85.6234 33.288 85.6234 33.442H85.7965V33.4384Z" fill="#CE0058"/>
<path id="Vector_23" d="M13.2812 8.64255C12.7693 8.86819 12.2357 8.98639 11.6409 8.98639C9.46345 8.98639 7.5708 7.851 7.5708 4.89613C7.5708 1.94126 9.48508 0.648281 11.6625 0.648281C12.1853 0.648281 12.8161 0.719914 13.2812 0.884671V1.95917C12.7693 1.74785 12.2105 1.6404 11.6625 1.6404C9.98618 1.6404 8.73523 2.46777 8.73523 4.82092C8.73523 7.17407 10.033 7.99069 11.6625 7.99069C12.2934 7.99069 12.7801 7.88324 13.2812 7.66118V8.64255Z" fill="#CE0058"/>
<path id="Vector_24" d="M14.4238 8.80731V3.33453H15.4008V3.88969C15.7108 3.37034 16.3273 3.15545 16.8644 3.15545C17.1384 3.15545 17.3043 3.18052 17.4593 3.21633V4.29083C17.2105 4.20845 16.9365 4.17264 16.6517 4.17264C16.01 4.17264 15.4873 4.40903 15.4621 4.95344C15.4368 5.90974 15.4368 7.35315 15.4368 8.80731H14.4238Z" fill="#CE0058"/>
<path id="Vector_25" d="M19.0276 6.01719C19.0168 6.07808 19.0168 6.20702 19.0168 6.25358C19.0168 7.47135 19.7306 8.10888 20.7905 8.10888C21.1582 8.10888 21.6233 8.06232 22.027 7.88324V8.77149C21.6125 8.9255 21.1114 8.97206 20.7292 8.97206C19.0745 8.97206 17.9209 8.06232 17.9209 6.01719C17.9209 4.29083 19.0168 3.16977 20.5165 3.16977C21.9333 3.16977 22.5137 4.12608 22.5137 5.36891C22.5137 5.548 22.5029 5.75931 22.4669 6.02077H19.0276V6.01719ZM21.169 5.18983C21.3709 5.18983 21.443 5.09671 21.443 4.90688C21.443 4.39828 21.1222 4.0437 20.4552 4.0437C19.5864 4.0437 19.2295 4.64542 19.1214 5.18983H21.169ZM19.5035 2.62536C20.0983 2.02364 20.5742 1.38252 20.9924 0.780804H22.146L20.4552 2.62536H19.5035Z" fill="#CE0058"/>
<path id="Vector_26" d="M27.9607 0C27.9354 1.41834 27.9138 2.64685 27.9138 4.25501V8.73567C27.0918 8.73567 26.7494 8.93625 25.8914 8.93625C24.5359 8.93625 23.3462 7.91905 23.3462 6.05301C23.3462 4.18696 24.5719 3.16977 25.8084 3.16977C26.3564 3.16977 26.7494 3.32378 26.9044 3.49928V0H27.9643H27.9607ZM26.0211 8.05158C26.5583 8.05158 26.9008 7.86175 26.9008 7.62536V4.46991C26.9008 4.23352 26.5331 4.05444 26.0211 4.05444C25.0586 4.05444 24.4746 4.7063 24.4746 6.06375C24.4746 7.4212 25.0586 8.04799 26.0211 8.04799V8.05158Z" fill="#CE0058"/>
<path id="Vector_27" d="M30.7222 1.6798C30.7222 2.05946 30.459 2.33166 30.0805 2.33166C29.702 2.33166 29.4136 2.05946 29.4136 1.6798C29.4136 1.32522 29.6876 1.05301 30.0805 1.05301C30.4735 1.05301 30.7222 1.32522 30.7222 1.6798ZM30.6393 3.33453C30.6032 4.98926 30.5924 7.10602 30.5924 8.80731H29.583V3.33453H30.6429H30.6393Z" fill="#CE0058"/>
<path id="Vector_28" d="M33.4332 3.33453H35.16V4.23352H33.4332C33.4332 5.22564 33.4223 6.25358 33.4223 7.38897C33.4223 7.89756 33.6963 8.08739 34.1722 8.08739C34.5651 8.08739 34.886 7.99427 35.16 7.84026V8.70344C34.7562 8.89327 34.3741 8.97564 33.8874 8.97564C33.0438 8.97564 32.4237 8.56375 32.4237 7.60387V4.23352H31.6162V3.33453H32.4237V2.27077L33.4332 1.65473V3.33453Z" fill="#CE0058"/>
<path id="Vector_29" d="M40.7985 6.06376C40.7985 7.77937 39.836 8.97206 38.3363 8.97206C36.8366 8.97206 35.874 7.77937 35.874 6.06376C35.874 4.34814 36.8366 3.16619 38.3363 3.16619C39.836 3.16619 40.7985 4.33739 40.7985 6.06376ZM36.9808 6.06376C36.9808 7.39972 37.5864 8.07307 38.3723 8.07307C39.1582 8.07307 39.6918 7.44628 39.6918 6.06376C39.6918 4.75287 39.0861 4.06519 38.311 4.06519C37.5359 4.06519 36.9772 4.68123 36.9772 6.06376H36.9808Z" fill="#CE0058"/>
</g>
</svg>
