<svg width="100" height="40" viewBox="0 0 100 40" fill="none" xmlns="http://www.w3.org/2000/svg">
<path d="M63.7613 4.2474C63.3513 4.32856 60.6992 3.82862 60.6992 3.82862C60.6992 3.82862 62.6755 4.86422 62.7203 5.13692C62.7715 5.42585 61.9388 7.13995 61.9388 7.13995C61.9388 7.13995 63.3449 5.68556 63.7741 5.32196C64.0784 5.06225 64.6773 5.0655 65.1289 5.14016C65.5453 5.20509 68.1013 5.63037 71.0096 4.10456C72.909 3.11116 72.9186 2.91313 72.9186 2.91313C72.9186 2.91313 71.4644 1.95219 68.9533 2.32553C66.1571 2.74107 64.168 4.15975 63.7581 4.24416" fill="#FFA300"/>
<path d="M25.1817 36.6173C24.6949 36.7504 22.046 36.1335 22.046 36.1335C22.046 36.1335 24.0094 37.3574 24.1824 37.5912C24.3522 37.8249 23.8205 40 23.8205 40C23.8205 40 25.0504 38.2924 25.5244 37.7697C25.8159 37.4581 26.5462 37.5327 26.9017 37.5879C27.2541 37.6431 30.7549 38.3054 34.0027 35.955C36.1263 34.4162 36.0943 34.124 36.0943 34.124C36.0943 34.124 34.102 32.7378 31.0848 33.3514C28.0644 33.9617 25.6686 36.4809 25.1849 36.6173" fill="#FFA300"/>
<path d="M84.2961 3.6208C83.5915 3.72793 79.9785 2.41638 79.9785 2.41638C79.9785 2.41638 82.5345 4.45512 82.7363 4.81547C82.9381 5.17258 81.8362 8.13654 81.8362 8.13654C81.8362 8.13654 83.8413 5.94847 84.5908 5.29594C85.0488 4.90313 86.0642 5.13362 86.5478 5.26997C87.0347 5.41281 91.8359 6.93213 96.7749 4.17593C99.9971 2.38067 100 1.95864 100 1.95864C100 1.95864 97.4315 -0.313846 93.1011 0.036766C88.7707 0.387378 85.0008 3.51366 84.2961 3.6208Z" fill="#CE0058"/>
<path d="M3.54249 31.2542C2.84424 31.4555 0 30.2997 0 30.2997C0 30.2997 2.76737 31.9522 2.86666 32.2411C2.96916 32.53 1.14026 35.2278 1.14026 35.2278C1.14026 35.2278 2.96916 33.6273 3.71865 33.0072C4.38487 32.4586 5.98956 32.2573 6.92483 32.3352C7.82486 32.4164 11.6012 32.9455 16.3576 29.7349C19.4645 27.6377 19.4356 27.2579 19.4356 27.2579C19.4356 27.2579 16.6907 25.5924 12.3667 26.5469C8.04266 27.5078 4.24074 31.0497 3.54249 31.2509" fill="#CE0058"/>
<path d="M39.3385 28.8518C38.8869 28.8973 37.2822 27.8649 37.2822 27.8649C37.2822 27.8649 38.7876 29.1894 38.8165 29.3777C38.8485 29.566 37.4328 31.0009 37.4328 31.0009C37.4328 31.0009 38.7236 30.2348 39.2521 29.9394C39.7197 29.6797 40.719 29.7413 41.2827 29.8939C41.8208 30.0465 44.0693 30.7997 47.33 29.3777C49.4567 28.4493 49.4823 28.2155 49.4823 28.2155C49.4823 28.2155 47.993 26.8877 45.248 26.9819C42.5031 27.0793 39.7902 28.8064 39.3385 28.8486" fill="#CE0058"/>
<path d="M15.602 20.0378C14.9134 20.369 14.0966 20.5345 13.3119 20.5345C10.2851 20.5345 7.6875 18.9113 7.6875 14.7462C7.6875 10.5811 10.3716 8.84747 13.3952 8.84747C14.1127 8.84747 14.9454 8.94811 15.6052 9.14614V11.0875C14.9326 10.8051 14.1959 10.6395 13.376 10.6395C11.2524 10.6395 9.731 11.7335 9.731 14.7007C9.731 17.668 11.3837 18.7295 13.3952 18.7295C14.244 18.7295 14.9166 18.5964 15.6052 18.2978V20.0378H15.602Z" fill="#CE0058"/>
<path d="M23.4365 16.3922C23.4365 18.8302 22.0464 20.5184 19.9036 20.5184C17.7608 20.5184 16.3867 18.8302 16.3867 16.3922C16.3867 13.9541 17.7928 12.2985 19.9036 12.2985C22.0143 12.2985 23.4365 13.9249 23.4365 16.3922ZM18.3341 16.3922C18.3341 18.0673 19.0548 18.8952 19.9548 18.8952C20.8549 18.8952 21.5083 18.1322 21.5083 16.3922C21.5083 14.6521 20.7876 13.9054 19.8716 13.9054C18.9555 13.9054 18.3341 14.6521 18.3341 16.3922Z" fill="#CE0058"/>
<path d="M34.6657 20.2879H32.8657V15.3306C32.8657 14.3015 32.4749 13.9249 31.6549 13.9249C31.1809 13.9249 30.4794 14.1197 30.4794 14.5028C30.4955 14.6878 30.5275 14.9151 30.5275 15.1683V20.2879H28.7274V15.3306C28.7274 14.2853 28.3174 13.9249 27.616 13.9249C27.0106 13.9249 26.4053 14.0905 26.4053 14.6521V20.2879H24.6084V12.6978C26.1939 12.6978 26.6999 12.3342 27.8786 12.3342C28.9452 12.3342 29.368 12.5841 29.7588 12.9315C30.3481 12.5484 31.1008 12.3342 32.0649 12.3342C33.6184 12.3342 34.6625 13.0484 34.6625 15.0871V20.2911L34.6657 20.2879Z" fill="#CE0058"/>
<path d="M35.9854 23.9173C36.0174 22.1805 36.0526 20.9533 36.0526 18.7815V12.5646C37.164 12.5646 37.8687 12.3017 38.9641 12.3017C40.9436 12.3017 42.5963 13.7398 42.5963 16.4473C42.5963 19.1548 40.8282 20.4729 39.1947 20.4729C38.4901 20.4729 38.0833 20.3073 37.8367 20.1223V23.9205H35.9854V23.9173ZM38.8136 13.8567C38.2082 13.8567 37.8335 14.1229 37.8335 14.3859V18.366C37.8335 18.6484 38.2595 18.8951 38.8136 18.8951C39.9602 18.8951 40.6136 18.1322 40.6136 16.4084C40.6136 14.6845 39.957 13.8534 38.8136 13.8534" fill="#CE0058"/>
<path d="M47.4806 15.1683V14.8696C47.4806 14.2431 47.0514 13.8567 46.2859 13.8567C45.5204 13.8567 44.7133 14.0093 43.8965 14.3859V12.6815C44.7453 12.4283 45.5172 12.2985 46.4301 12.2985C48.1981 12.2985 49.2935 13.0257 49.2935 14.8501C49.2935 16.1292 49.2455 17.2362 49.2455 18.4666C49.2455 19.1127 49.2807 19.8236 49.3287 20.2424C48.0187 20.2424 47.3173 20.4534 46.2026 20.4534C44.3065 20.4534 43.3584 19.5607 43.3584 18.0543C43.3584 16.548 44.6012 15.2559 47.4806 15.1715M47.4806 16.5285C45.988 16.5772 45.2225 17.0415 45.2225 17.9212C45.2225 18.5153 45.6806 18.9341 46.382 18.9341C47.0354 18.9341 47.3461 18.7523 47.4134 18.5153C47.4614 18.2686 47.4806 17.5219 47.4806 16.5285Z" fill="#CE0058"/>
<path d="M50.6875 12.5289H52.3883V13.2593C52.8463 12.5289 53.615 12.2789 54.3677 12.2789C54.6944 12.2789 54.9571 12.3146 55.2037 12.3471V14.269C54.893 14.1196 54.403 14.0547 53.9417 14.0547C53.205 14.0547 52.5548 14.3534 52.5196 15.0027C52.4876 16.3142 52.4876 18.3205 52.4876 20.2911H50.6875V12.5289Z" fill="#CE0058"/>
<path d="M57.7467 12.529H59.9536V14.1197H57.7467C57.7467 15.7624 57.7307 16.8889 57.7307 18.0998C57.7307 18.6777 58.0735 18.9114 58.6756 18.9114C59.1689 18.9114 59.5596 18.8302 59.9536 18.6127V20.2197C59.4123 20.421 58.8582 20.5184 58.2048 20.5184C56.8948 20.5184 55.9307 19.9048 55.9307 18.4634V11.12L57.7467 10.026V12.529Z" fill="#CE0058"/>
<path d="M65.0102 15.1682V14.8663C65.0102 14.2398 64.5842 13.8534 63.8155 13.8534C63.0468 13.8534 62.246 14.006 61.4261 14.3826V12.6782C62.2749 12.425 63.0468 12.2952 63.9628 12.2952C65.7277 12.2952 66.8231 13.0224 66.8231 14.8468C66.8231 16.1259 66.775 17.2329 66.775 18.4633C66.775 19.1094 66.8071 19.8203 66.8583 20.2391C65.5483 20.2391 64.8436 20.4501 63.7322 20.4501C61.836 20.4501 60.8848 19.5574 60.8848 18.051C60.8848 16.5447 62.1307 15.2526 65.007 15.1682M65.007 16.5252C63.5176 16.5739 62.7489 17.0382 62.7489 17.9179C62.7489 18.512 63.2069 18.9308 63.9116 18.9308C64.565 18.9308 64.8725 18.749 64.9397 18.512C64.9878 18.2653 65.007 17.5186 65.007 16.5252Z" fill="#CE0058"/>
<path d="M78.2969 20.2879H76.5V15.3306C76.5 14.3015 76.1092 13.9249 75.2893 13.9249C74.8152 13.9249 74.1106 14.1197 74.1106 14.5028C74.1266 14.6878 74.1586 14.9151 74.1586 15.1683V20.2879H72.3586V15.3306C72.3586 14.2853 71.9518 13.9249 71.2471 13.9249C70.6418 13.9249 70.0364 14.0905 70.0364 14.6521V20.2879H68.2363V12.6945C69.8218 12.6945 70.3311 12.3309 71.5098 12.3309C72.5699 12.3309 72.9959 12.5809 73.3899 12.9283C73.9761 12.5452 74.732 12.3309 75.6961 12.3309C77.2463 12.3309 78.2937 13.0451 78.2937 15.0806V20.2879H78.2969Z" fill="#CE0058"/>
<path d="M86.4704 16.3922C86.4704 18.8302 85.0803 20.5184 82.9375 20.5184C80.7947 20.5184 79.4238 18.8302 79.4238 16.3922C79.4238 13.9541 80.8299 12.2985 82.9375 12.2985C85.0451 12.2985 86.4704 13.9249 86.4704 16.3922ZM81.3648 16.3922C81.3648 18.0673 82.0855 18.8952 82.9855 18.8952C83.8856 18.8952 84.5422 18.1355 84.5422 16.3922C84.5422 14.6489 83.8215 13.9054 82.9055 13.9054C81.9894 13.9054 81.3648 14.6521 81.3648 16.3922Z" fill="#CE0058"/>
<path d="M90.2149 12.2984C90.8202 12.2984 91.3295 12.3471 91.9829 12.5289V14.256C91.2142 13.9411 90.6729 13.8567 90.1508 13.8567C89.5294 13.8567 89.1387 14.1229 89.1387 14.5222C89.1387 15.7136 92.3448 15.6 92.3448 17.9861C92.3448 19.2782 91.4288 20.5248 89.302 20.5248C88.6326 20.5248 87.9439 20.4566 87.3066 20.2619V18.6387C87.9279 18.8529 88.6646 18.9536 89.1899 18.9536C90.0547 18.9536 90.4967 18.6224 90.4967 18.1095C90.4967 16.7979 87.2745 16.996 87.2745 14.7267C87.2745 13.2366 88.3892 12.3082 90.2181 12.3082" fill="#CE0058"/>
<path d="M70.3338 31.7346C70.3338 33.2994 68.9982 34.2733 67.1565 34.2733C66.1956 34.2733 65.744 34.1824 64.7959 34.1824V25.3197C65.7696 25.3197 66.17 25.1866 67.0027 25.1866C68.8829 25.1866 69.8182 26.1054 69.8182 27.4364C69.8182 28.2902 69.2865 29.0791 68.2487 29.342C69.5075 29.592 70.337 30.6309 70.337 31.7346H70.3338ZM65.9618 28.946H66.4038C67.9989 28.946 68.5562 28.274 68.5562 27.537C68.5562 26.7482 67.9989 26.2093 66.9355 26.2093C66.1956 26.2093 66.0258 26.3002 66.013 26.5112C65.9746 27.313 65.9618 28.3519 65.9618 28.946ZM67.1565 33.2604C68.2839 33.2604 69.0494 32.6696 69.0494 31.6957C69.0494 30.7218 68.2711 29.9848 66.6632 29.9459C66.4166 29.9459 66.17 29.9459 65.9618 29.9718V32.9293C65.9618 33.1533 66.3141 33.2572 67.1565 33.2572V33.2604Z" fill="#CE0058"/>
<path d="M74.3858 30.2089V29.894C74.3858 29.2382 73.9822 28.8811 73.2327 28.8811C72.6369 28.8811 72.0508 29.0142 71.4679 29.2901V28.2513C72.0668 28.0273 72.6498 27.9104 73.3352 27.9104C74.6708 27.9104 75.4908 28.4623 75.4908 29.855C75.4908 30.9068 75.4524 31.8548 75.4524 32.8384C75.4524 33.3644 75.478 33.7994 75.5036 34.1403C74.5555 34.1403 73.9598 34.3123 73.1814 34.3123C71.7689 34.3123 71.0419 33.5754 71.0419 32.4586C71.0419 31.2477 72.0284 30.264 74.389 30.2121L74.3858 30.2089ZM74.3858 31.0756C72.8804 31.1016 72.2334 31.5237 72.2334 32.3775C72.2334 32.9293 72.6241 33.3644 73.3128 33.3644C74.0014 33.3644 74.2705 33.1923 74.3249 32.9164C74.3762 32.6664 74.389 31.9684 74.389 31.0756H74.3858Z" fill="#CE0058"/>
<path d="M77.672 29.5661V34.1824H76.5702V28.2383C77.829 28.2383 77.9987 27.9234 79.1902 27.9234C80.3049 27.9234 81.2914 28.4753 81.2914 30.027V34.1824H80.1863V30.2251C80.1863 29.2771 79.7475 28.9362 78.902 28.9362C78.1493 28.9362 77.6688 29.2382 77.6688 29.5661H77.672Z" fill="#CE0058"/>
<path d="M85.189 33.3676C85.5669 33.3676 85.852 33.3286 86.1627 33.2767V34.2506C85.8008 34.3285 85.4741 34.3707 85.1634 34.3707C83.3345 34.3707 82.127 33.2929 82.127 31.1373C82.127 29.1765 83.2032 27.9169 85.1634 27.9169C85.4997 27.9169 85.8392 27.9558 86.1627 28.0078V29.0726C85.8264 28.9687 85.5253 28.9297 85.1506 28.9297C84.0487 28.9297 83.3601 29.5628 83.3601 31.1503C83.3601 32.7378 84.0487 33.3741 85.189 33.3741V33.3676Z" fill="#CE0058"/>
<path d="M92.1623 31.1308C92.1623 33.0365 91.1117 34.3643 89.4782 34.3643C87.8447 34.3643 86.7909 33.0365 86.7909 31.1308C86.7909 29.2252 87.8415 27.9104 89.4782 27.9104C91.1149 27.9104 92.1623 29.2122 92.1623 31.1308ZM87.9984 31.1308C87.9984 32.6144 88.6614 33.3644 89.5166 33.3644C90.3718 33.3644 90.958 32.6664 90.958 31.1308C90.958 29.67 90.2949 28.907 89.4526 28.907C88.6102 28.907 87.9984 29.592 87.9984 31.1308Z" fill="#CE0058"/>
<path d="M95.5222 34.1954C94.6445 34.1954 94.0264 33.5137 94.0264 32.6729C94.0264 31.8321 94.6445 31.1373 95.5222 31.1373C96.3998 31.1373 97.0275 31.8126 97.0275 32.6729C97.0275 33.5332 96.3998 34.1954 95.5222 34.1954ZM95.5126 31.397C94.7791 31.397 94.3082 31.9652 94.3082 32.6664C94.3082 33.3676 94.7823 33.939 95.5126 33.939C96.2428 33.939 96.7137 33.3709 96.7137 32.6664C96.7137 31.9619 96.2428 31.397 95.5126 31.397ZM95.1314 33.65H94.8527V31.6373C95.0673 31.6373 95.2115 31.6081 95.4261 31.6081C95.8104 31.6081 96.1115 31.8028 96.1115 32.1697C96.1115 32.4067 95.9866 32.5787 95.756 32.6859C95.7368 32.6988 95.7304 32.7151 95.7304 32.7346C95.7304 32.7508 95.7368 32.7768 95.7496 32.793L96.2845 33.6468H95.9802L95.5414 32.9715C95.4517 32.8417 95.41 32.8092 95.314 32.8092H95.1346V33.6468L95.1314 33.65ZM95.3236 32.5593C95.6503 32.5593 95.804 32.4294 95.804 32.1762C95.804 31.9717 95.6343 31.8613 95.3876 31.8613C95.2339 31.8613 95.1506 31.9002 95.1442 31.9424C95.1346 32.1697 95.1346 32.3839 95.1346 32.5593H95.3268H95.3236Z" fill="#CE0058"/>
</svg>
