<svg width="94" height="22" viewBox="0 0 94 22" fill="none" xmlns="http://www.w3.org/2000/svg">
<g id="gentera_logo">
<g id="Vector">
<path d="M7.12946 19.5029C7.12946 19.751 6.7713 19.974 6.12019 19.974C4.38859 19.974 3.19873 18.9625 3.19873 16.4425C3.19873 13.6755 4.7036 12.7976 6.72715 12.7976C7.46755 12.7976 8.20995 12.9121 9.08579 13.1813L9.11087 10.9526C8.29824 10.7728 7.55784 10.7075 6.74722 10.7075C3.26495 10.7075 0.5 12.4843 0.5 16.3994C0.5 20.3144 3.2198 21.9998 6.25663 21.9998C7.28998 21.9998 8.63633 21.818 9.57939 21.4152V16.2628H7.12845V19.5019L7.12946 19.5029Z" fill="#252A2D"/>
<path d="M14.4368 19.482V17.0282H18.3244V15.138H14.4368C14.4368 14.2612 14.4368 13.6746 14.483 13.1132C14.483 13.0238 14.6184 12.8872 14.7298 12.8872C16.6379 12.8872 17.7405 12.8872 18.7959 12.9997V10.9316H11.9658V21.775H18.9554V19.6828C18.1007 19.7511 17.0874 19.7732 14.7298 19.7732C14.5482 19.7732 14.4378 19.6386 14.4378 19.482" fill="#252A2D"/>
<path d="M27.8545 16.9168C27.8545 17.0734 27.8113 17.1638 27.72 17.1638C27.6759 17.1638 27.6538 17.1397 27.6077 17.1176L23.5395 10.9316H21.0444V21.775H23.2937V14.687C24.2117 15.9696 26.7318 19.8867 27.7662 21.775H30.0787V10.9316H27.8545V16.9168Z" fill="#252A2D"/>
<path d="M31.5371 13.1353C32.4129 13.0459 33.5597 12.9997 34.592 12.9997C34.7706 12.9997 34.908 13.1594 34.908 13.294V21.775H37.379V16.7571C37.379 15.0697 37.379 14.1477 37.4242 13.3161C37.4242 13.1584 37.5596 12.9987 37.7141 12.9987C38.7515 12.9987 39.9403 13.0449 40.771 13.1343V10.9307H31.5371V13.1353Z" fill="#252A2D"/>
<path d="M44.5887 19.482V17.0282H48.4723V15.138H44.5887C44.5887 14.2612 44.5887 13.6746 44.6318 13.1132C44.6318 13.0238 44.7673 12.8872 44.8786 12.8872C46.7898 12.8872 47.8914 12.8872 48.9468 12.9997V10.9316H42.1167V21.775H49.1033V19.6828C48.2516 19.7511 47.2393 19.7732 44.8796 19.7732C44.7001 19.7732 44.5897 19.6386 44.5897 19.482" fill="#252A2D"/>
<path d="M65.4885 10.9315H63.153C62.5671 12.7323 60.8435 17.0461 59.4289 20.3596L57.0372 16.9829C58.2752 16.4425 59.0848 15.3618 59.0848 14.0571C59.0848 11.7872 57.2198 10.7969 55.0167 10.7969C53.3773 10.7969 52.9259 10.9516 51.1963 10.9516V21.7738H53.6683V17.8366H54.2291C54.5221 17.8366 54.7468 17.9491 55.126 18.4432L57.6 21.7748H61.309C61.623 20.919 61.9391 20.0432 62.3213 19.1644H66.1186C66.4557 20.0432 66.7466 20.8728 67.0165 21.7748H69.6009L65.4885 10.9315ZM54.4779 15.9263H53.6673C53.6673 15.1599 53.6894 13.811 53.7345 13.112C53.7566 12.886 53.9141 12.7092 54.6565 12.7092C55.6206 12.7092 56.3851 13.1813 56.3851 14.2148C56.3851 15.3618 55.6898 15.9263 54.4779 15.9263ZM63.0617 17.2068C63.3978 16.2406 63.8041 15.184 64.2756 14.0802C64.7251 15.184 65.1083 16.1944 65.4444 17.2068H63.0617Z" fill="#252A2D"/>
<path d="M82.9913 5.55033L83.0295 5.30727C83.0515 5.14456 83.0766 4.98586 83.1017 4.82717L83.1127 4.75586C82.8629 4.90049 82.6191 5.05014 82.3814 5.20181C82.2259 5.30325 82.0814 5.39866 81.9369 5.49609L81.8898 5.52723C81.7583 5.61662 81.6289 5.70801 81.5015 5.79941L81.4393 5.84561C81.3139 5.93501 81.1935 6.02439 81.0741 6.1168L81.0049 6.16802C80.8865 6.25942 80.7681 6.35182 80.6518 6.44523L80.5876 6.49746C80.4712 6.59288 80.3538 6.68829 80.2374 6.78672L80.1802 6.83594C80.0619 6.93738 79.9445 7.03882 79.8291 7.14227L79.784 7.18245C79.6606 7.29193 79.5422 7.40241 79.4248 7.51389L79.3977 7.54001C78.6242 8.27421 77.9059 9.07571 77.2618 9.9214C77.1544 10.063 77.0541 10.2006 76.9538 10.3372L76.9167 10.3904C76.8304 10.513 76.7431 10.6365 76.6578 10.7621L76.6107 10.8304C76.5254 10.9579 76.4472 11.0754 76.3709 11.194L76.3067 11.2914C76.2365 11.4049 76.1642 11.5194 76.094 11.6339L76.0278 11.7434C75.9596 11.8568 75.8944 11.9703 75.8282 12.0848L75.7629 12.2003C75.6967 12.3158 75.6345 12.4303 75.5723 12.5469L75.5111 12.6614C75.4469 12.7819 75.3857 12.9004 75.3255 13.0199L75.2713 13.1294C75.2051 13.259 75.1419 13.3905 75.0817 13.5211L75.0446 13.5995C74.8951 13.9229 74.7507 14.2503 74.6223 14.5767L74.6152 14.5938C74.553 14.7485 74.4938 14.9051 74.4356 15.0608L74.3855 15.2004C74.3423 15.3169 74.3002 15.4335 74.2601 15.553L74.1999 15.7338C74.1668 15.8372 74.1317 15.9437 74.0985 16.0491L74.0384 16.25C74.0083 16.3505 73.9782 16.4509 73.9501 16.5523C73.939 16.5895 73.928 16.6247 73.918 16.6628C74.0233 16.5825 74.1307 16.5001 74.235 16.4218C74.4296 16.2771 74.6182 16.1385 74.8078 15.9979L75.0105 15.8533C75.1309 15.7659 75.2533 15.6775 75.3727 15.5911L75.6175 15.4214C75.7228 15.3461 75.8302 15.2697 75.9375 15.1974L76.1953 15.0217C76.2957 14.9513 76.396 14.882 76.4973 14.8148C76.5846 14.7555 76.6749 14.6962 76.7612 14.637C76.8595 14.5727 76.9568 14.5074 77.0561 14.4441C77.1454 14.3849 77.2337 14.3266 77.324 14.2684C77.4213 14.2071 77.5176 14.1458 77.6139 14.0846C77.7032 14.0283 77.7935 13.9721 77.8838 13.9158C77.9701 13.8616 78.0554 13.8084 78.1416 13.7551L78.4386 13.5743C78.5359 13.5151 78.6322 13.4568 78.7295 13.4006L78.9914 13.2459C79.0907 13.1877 79.188 13.1314 79.2884 13.0762L79.5442 12.9295C79.6365 12.8763 79.7268 12.8271 79.8171 12.7769L80.095 12.6242C80.2264 12.5529 80.3568 12.4826 80.4892 12.4133C80.5765 12.3661 80.6648 12.3199 80.7511 12.2747C80.8956 12.1993 81.04 12.126 81.1835 12.0527L81.4453 11.9241C81.5406 11.8769 81.6359 11.8287 81.7323 11.7815L82.0513 11.6289C82.0914 11.6108 82.1295 11.5917 82.1677 11.5736L82.1857 11.4661C82.2289 11.1809 82.269 10.8967 82.3071 10.6215L82.9271 5.99527C82.9492 5.84561 82.9703 5.69697 82.9923 5.54932L82.9913 5.55033Z" fill="#252A2D"/>
<path d="M93.0816 2.08936C91.5256 2.10944 88.0684 2.31132 83.9601 4.31607L83.9441 4.40948C83.7223 5.8116 83.4715 7.59438 83.1565 10.02L83.0642 10.725C83.0441 10.8787 83.0221 11.0354 83 11.1911H83.003V11.1981C83.2428 11.0926 83.4956 10.9882 83.7685 10.8757L83.9019 10.8215C84.1878 10.706 84.4828 10.5925 84.7818 10.482L84.9262 10.4277C85.2393 10.3153 85.5282 10.2138 85.8061 10.1234L85.9194 10.0852C86.2505 9.97878 86.5485 9.88638 86.8314 9.80402C87.1013 9.72668 87.3681 9.65236 87.638 9.58205C87.6922 9.56799 87.7464 9.55393 87.8015 9.54087L87.9621 9.5017C88.1226 9.46052 88.2841 9.42035 88.4446 9.38218C88.5169 9.36611 88.5891 9.35004 88.6603 9.33296L88.86 9.28978C88.9894 9.26065 89.1208 9.23052 89.2522 9.2044C89.3285 9.18833 89.4047 9.17427 89.483 9.1582L89.7087 9.11501C89.8261 9.09292 89.9425 9.06982 90.0599 9.04872C90.1431 9.03265 90.2274 9.0196 90.3117 9.00554L90.5003 8.9754C90.6217 8.95431 90.7441 8.93422 90.8675 8.91615C90.9547 8.90309 91.041 8.89003 91.1283 8.87697L91.3019 8.85387C91.4253 8.8368 91.5497 8.81973 91.6731 8.80365C91.7694 8.7916 91.8657 8.78055 91.962 8.77051L92.0834 8.75645C92.2158 8.74239 92.3483 8.72632 92.4797 8.71326C92.579 8.70422 92.6773 8.69618 92.7756 8.68815L92.9823 8.67007C93.0405 8.66505 93.0987 8.65902 93.1599 8.654H93.19L93.2652 8.64898C93.3124 8.64496 93.3605 8.64094 93.4077 8.63693L93.4619 8.63391C93.5802 6.76978 93.4247 4.62844 93.0826 2.08936H93.0816Z" fill="#252A2D"/>
<path d="M92.9137 9.44537L92.8666 9.45039C92.7522 9.46043 92.6358 9.46947 92.5205 9.48152C92.375 9.49458 92.2305 9.51165 92.0861 9.52773L92.049 9.53174C91.9456 9.54379 91.8403 9.55585 91.7389 9.5689C91.5945 9.58698 91.45 9.60707 91.3055 9.62716L91.2484 9.63419C91.151 9.64825 91.0537 9.66231 90.9544 9.67738C90.823 9.69746 90.6906 9.71956 90.5581 9.74065L90.4227 9.76375C90.3394 9.77782 90.2561 9.79188 90.1709 9.80694C90.0415 9.83105 89.911 9.85616 89.7796 9.88127L89.6141 9.91341C89.5388 9.92847 89.4626 9.94254 89.3883 9.95961C89.2549 9.98773 89.1225 10.0159 88.988 10.045L88.8295 10.0821C88.7563 10.0972 88.681 10.1133 88.6068 10.1314C88.4603 10.1655 88.3139 10.2027 88.1674 10.2398L87.9898 10.285C87.9356 10.2981 87.8795 10.3101 87.8253 10.3262C87.5644 10.3945 87.3046 10.4648 87.0458 10.5401C85.6773 10.9369 84.2668 11.4632 82.8582 12.103C82.7097 12.9828 82.5261 13.8717 82.3124 14.7465C82.2593 14.9644 82.2051 15.1754 82.1499 15.3873L82.1319 15.4556C82.0817 15.6444 82.0305 15.8322 81.9774 16.0201L81.9442 16.1346C81.8951 16.3063 81.8459 16.476 81.7938 16.6448L81.7476 16.7934C81.6984 16.9501 81.6503 17.1058 81.5991 17.2615L81.5409 17.4372C81.4928 17.5819 81.4446 17.7265 81.3965 17.8691L81.3262 18.066C81.2791 18.1996 81.2319 18.3342 81.1818 18.4667C81.1557 18.538 81.1296 18.6094 81.1015 18.6807C81.0554 18.8062 81.0062 18.9318 80.957 19.0553L80.8688 19.2823C80.8216 19.4008 80.7735 19.5193 80.7263 19.6368L80.628 19.8709C80.5788 19.9844 80.5287 20.0979 80.4805 20.2083L80.3752 20.4454C80.33 20.5498 80.2819 20.6523 80.2347 20.7537L80.1996 20.8321C80.1715 20.8913 80.1434 20.9506 80.1163 21.0088C80.0642 21.1173 80.012 21.2248 79.9598 21.3322L79.9287 21.3945C79.9026 21.4487 79.8755 21.504 79.8485 21.5582L79.8244 21.6074C79.7873 21.6878 79.7471 21.7742 79.708 21.8565C80.5828 21.7722 81.5269 21.5522 82.5301 21.1876L82.5392 21.0771L82.5472 20.9998C82.5492 20.9807 82.5522 20.9616 82.5542 20.9415L82.5663 20.821C82.5693 20.7919 82.5743 20.7628 82.5783 20.7326L82.5863 20.6724C82.5974 20.595 82.6064 20.5167 82.6184 20.4383C82.6305 20.361 82.6435 20.2837 82.6576 20.2063C82.6706 20.128 82.6856 20.0506 82.6987 19.9733C82.7147 19.897 82.7308 19.8206 82.7458 19.7453C82.7639 19.668 82.781 19.5906 82.798 19.5153C82.8161 19.441 82.8371 19.3657 82.8552 19.2933C82.8763 19.217 82.8973 19.1407 82.9174 19.0653C82.9395 18.993 82.9605 18.9207 82.9846 18.8494L82.9896 18.8283C83.0127 18.761 83.0328 18.6907 83.0568 18.6244C83.0779 18.5601 83.1 18.4959 83.1241 18.4326L83.1391 18.3904C83.1632 18.3231 83.1863 18.2558 83.2134 18.1895C83.2374 18.1273 83.2615 18.064 83.2886 18.0017L83.2996 17.9736C83.3297 17.9043 83.3558 17.834 83.3879 17.7667C83.412 17.7104 83.4371 17.6562 83.4632 17.602L83.4953 17.5306C83.5234 17.4704 83.5504 17.4111 83.5805 17.3519C83.6056 17.2996 83.6317 17.2474 83.6588 17.1952L83.6909 17.1329C83.723 17.0706 83.7551 17.0074 83.7882 16.9471C83.8173 16.8939 83.8484 16.8426 83.8775 16.7904L83.9227 16.7101C83.9538 16.6568 83.9849 16.6046 84.0139 16.5514C84.0471 16.4971 84.0822 16.4429 84.1163 16.3877L84.1283 16.3656C84.1775 16.2902 84.2146 16.229 84.2547 16.1667C84.2848 16.1195 84.3189 16.0713 84.352 16.0241L84.4012 15.9528C84.4373 15.8995 84.4734 15.8473 84.5116 15.7941C84.5467 15.7469 84.5808 15.7007 84.6169 15.6525L84.663 15.5902C84.7032 15.5369 84.7423 15.4847 84.7834 15.4345C84.8185 15.3913 84.8537 15.3471 84.8878 15.3049L84.946 15.2346C84.9851 15.1834 85.0282 15.1352 85.0694 15.085C85.1065 15.0398 85.1466 14.9976 85.1857 14.9544L85.2439 14.8901C85.2851 14.8429 85.3272 14.7967 85.3683 14.7505C85.4095 14.7073 85.4516 14.6661 85.4917 14.624L85.5569 14.5577C85.5991 14.5125 85.6412 14.4703 85.6843 14.4271C85.7235 14.3899 85.7616 14.3528 85.8017 14.3166L85.879 14.2423C85.9241 14.2011 85.9673 14.1589 86.0134 14.1188C86.0525 14.0836 86.0907 14.0485 86.1338 14.0133L86.2131 13.944C86.2582 13.9028 86.3064 13.8636 86.3535 13.8245C86.3967 13.7893 86.4388 13.7542 86.4829 13.72L86.5752 13.6477C86.6184 13.6136 86.6625 13.5784 86.7077 13.5432C86.7538 13.5081 86.799 13.475 86.8451 13.4418L86.9414 13.3715C86.9846 13.3394 87.0287 13.3082 87.0708 13.2781C87.116 13.248 87.1601 13.2178 87.2053 13.1897L87.3126 13.1184C87.3568 13.0863 87.4029 13.0561 87.4501 13.027C87.4972 12.9959 87.5484 12.9667 87.5985 12.9376L87.6939 12.8783C87.741 12.8492 87.7892 12.8201 87.8373 12.793C87.8865 12.7649 87.9366 12.7387 87.9858 12.7096L88.0901 12.6544C88.1373 12.6283 88.1854 12.6001 88.2346 12.575C88.2878 12.5469 88.342 12.5198 88.3971 12.4937L88.5005 12.4414C88.5476 12.4183 88.5938 12.3962 88.6429 12.3721C88.6931 12.348 88.7463 12.3259 88.7974 12.3038L88.9138 12.2526C88.964 12.2305 89.0111 12.2094 89.0603 12.1883C89.1165 12.1642 89.1736 12.1431 89.2318 12.12L89.3532 12.0728C89.3984 12.0548 89.4435 12.0377 89.4887 12.0206C89.5458 12.0005 89.603 11.9814 89.6612 11.9603L89.7926 11.9151C89.8358 11.9001 89.8799 11.885 89.9231 11.872C89.9853 11.8519 90.0475 11.8348 90.1087 11.8157L90.2441 11.7765C90.2852 11.7645 90.3254 11.7514 90.3675 11.7404C90.4317 11.7233 90.4959 11.7062 90.5601 11.6932L90.6926 11.66C90.7337 11.65 90.7778 11.6379 90.821 11.6289C90.8922 11.6128 90.9654 11.5988 91.0387 11.5847L91.1631 11.5596C91.2032 11.5516 91.2423 11.5445 91.2815 11.5375C91.3677 11.5224 91.454 11.5084 91.5423 11.4963L91.6547 11.4792C91.6848 11.4752 91.7159 11.4682 91.748 11.4652C91.9045 11.4441 92.062 11.427 92.2205 11.413C92.3188 11.4039 92.4202 11.3989 92.5245 11.3929L92.9709 11.3768L92.9689 11.3798H93.0311C93.1957 10.7561 93.314 10.1012 93.3883 9.4082C93.2298 9.41925 93.0713 9.43231 92.9128 9.44537H92.9137Z" fill="#252A2D"/>
<path d="M92.5299 12.1609C92.3724 12.175 92.2821 12.178 92.2821 12.178C92.2078 12.185 91.9179 12.2171 91.8537 12.2252C91.8246 12.2292 91.7965 12.2342 91.7704 12.2382L91.7162 12.2463C91.6089 12.2633 91.5156 12.2754 91.4263 12.2925C91.3892 12.2975 91.3541 12.3055 91.3199 12.3126L91.2126 12.3336C91.1434 12.3477 91.0732 12.3618 91.0029 12.3768C90.9658 12.3849 90.9247 12.3949 90.8865 12.404L90.7822 12.4301C90.718 12.4461 90.6518 12.4622 90.5876 12.4793C90.5444 12.4893 90.5023 12.5024 90.4602 12.5144L90.3699 12.5406C90.3057 12.5586 90.2415 12.5777 90.1793 12.5978C90.1341 12.6119 90.09 12.6269 90.0458 12.641L89.9555 12.6721C89.8963 12.6912 89.8371 12.7113 89.778 12.7324C89.7368 12.7485 89.6927 12.7645 89.6505 12.7816L89.5693 12.8127C89.5091 12.8368 89.4459 12.8599 89.3847 12.8851C89.3325 12.9072 89.2803 12.9303 89.2282 12.9513L89.2061 12.9624C89.1359 12.9925 89.0697 13.0217 89.0014 13.0538C88.9553 13.0749 88.9091 13.097 88.865 13.1191L88.7968 13.1522C88.7386 13.1803 88.6814 13.2075 88.6252 13.2376C88.5721 13.2657 88.5189 13.2928 88.4657 13.322C88.3865 13.3651 88.3222 13.4003 88.258 13.4365C88.2009 13.4686 88.1457 13.5028 88.0885 13.5369C88.0263 13.5741 87.9621 13.6122 87.9009 13.6504C87.8447 13.6845 87.7895 13.7207 87.7333 13.7569C87.6731 13.797 87.614 13.8372 87.5538 13.8784C87.4996 13.9156 87.4454 13.9537 87.3922 13.9929C87.333 14.0341 87.2749 14.0773 87.2167 14.1204C87.1655 14.1596 87.1123 14.1998 87.0602 14.241C87.004 14.2852 86.9468 14.3304 86.8906 14.3766C86.8404 14.4177 86.7903 14.4599 86.7401 14.5031C86.6849 14.5503 86.6298 14.5985 86.5766 14.6457C86.5274 14.6889 86.4773 14.7331 86.4301 14.7783C86.377 14.8275 86.3258 14.8778 86.2736 14.928C86.2265 14.9732 86.1783 15.0194 86.1332 15.0676C86.084 15.1188 86.0328 15.171 85.9827 15.2223C85.9365 15.2695 85.8924 15.3177 85.8492 15.3669C85.7991 15.4201 85.7519 15.4733 85.7048 15.5296C85.6616 15.5788 85.6185 15.627 85.5743 15.6772C85.5302 15.7335 85.4831 15.7897 85.4389 15.847L85.4188 15.8701C85.3837 15.9133 85.3506 15.9575 85.3185 15.9996C85.2724 16.0579 85.2292 16.1172 85.1871 16.1764C85.1399 16.2367 85.1048 16.2849 85.0707 16.3331C85.0296 16.3934 84.9874 16.4546 84.9443 16.5149L84.9212 16.5541C84.8921 16.5952 84.8661 16.6364 84.837 16.6776C84.7999 16.7369 84.7637 16.7961 84.7266 16.8564L84.6955 16.9076C84.6704 16.9498 84.6443 16.99 84.6203 17.0311C84.5882 17.0854 84.5581 17.1406 84.527 17.1959L84.4878 17.2672C84.4638 17.3094 84.4387 17.3526 84.4166 17.3947C84.3855 17.454 84.3574 17.5122 84.3253 17.5725L84.2872 17.6509C84.2671 17.692 84.2461 17.7302 84.228 17.7694C84.2019 17.8276 84.1738 17.8869 84.1467 17.9451L84.1056 18.0385C84.0885 18.0767 84.0705 18.1139 84.0544 18.153C84.0274 18.2163 84.0023 18.2806 83.9772 18.3449L83.9421 18.4333C83.927 18.4704 83.912 18.5076 83.8989 18.5427C83.8708 18.6151 83.8458 18.6864 83.8207 18.7607L83.7916 18.8481C83.7795 18.8782 83.7675 18.9103 83.7575 18.9435C83.7264 19.0419 83.6953 19.1414 83.6662 19.2428L83.6521 19.289C83.6451 19.3091 83.6401 19.3302 83.6331 19.3493C83.5949 19.4869 83.5598 19.6255 83.5257 19.7631L83.5097 19.8464C83.4836 19.9579 83.4595 20.0704 83.4374 20.1839L83.4324 20.215L83.3481 20.8568C84.9202 20.1879 86.6227 19.1835 88.4296 17.7965C90.6759 16.073 92.0583 14.3002 92.8027 12.1519C92.6021 12.1589 92.5319 12.1589 92.5319 12.1589L92.5299 12.1609Z" fill="#252A2D"/>
<path d="M73.1874 16.4106C73.2265 16.271 73.2646 16.1414 73.3047 16.0139L73.3358 15.9044C73.389 15.7316 73.4462 15.5589 73.5034 15.3871C73.5144 15.353 73.5275 15.3188 73.5395 15.2867L73.5596 15.2224C73.6007 15.1059 73.6418 14.9904 73.684 14.8759C73.7 14.8287 73.7201 14.7795 73.7381 14.7323L73.7873 14.6007C73.8164 14.5244 73.8455 14.447 73.8766 14.3707C73.9017 14.3064 73.9298 14.2411 73.9558 14.1758L73.989 14.0945C74.0181 14.0202 74.0492 13.9468 74.0803 13.8745C74.1083 13.8072 74.1374 13.7389 74.1685 13.6726L74.1906 13.6194C74.2257 13.5411 74.2608 13.4617 74.297 13.3834C74.3371 13.296 74.3772 13.2086 74.4193 13.1212C74.4545 13.0489 74.4896 12.9746 74.5257 12.9013C74.5708 12.8119 74.613 12.7235 74.6591 12.6331C74.6942 12.5648 74.7304 12.4945 74.7655 12.4262C74.8126 12.3348 74.8618 12.2434 74.9099 12.153C74.945 12.0887 74.9802 12.0265 75.0163 11.9622C75.0664 11.8668 75.1206 11.7733 75.1728 11.6799C75.2069 11.6227 75.241 11.5654 75.2731 11.5102C75.3303 11.4108 75.3895 11.3133 75.4487 11.2169L75.54 11.0703C75.6042 10.9668 75.6694 10.8634 75.7346 10.7599L75.8058 10.6515C75.8811 10.539 75.9553 10.4245 76.0336 10.312L76.0516 10.2869C76.5232 9.59986 77.0428 8.93195 77.5966 8.30421L77.6277 8.26906C77.7261 8.15757 77.8264 8.04709 77.9287 7.93861L77.9849 7.87634C78.0812 7.77189 78.1805 7.66944 78.2808 7.56599L78.3521 7.49367C78.4494 7.39424 78.5487 7.29481 78.647 7.19738L78.7283 7.12105C78.8276 7.02362 78.9269 6.93021 79.0283 6.8358L79.1105 6.75746C79.2149 6.66506 79.3162 6.57265 79.4195 6.48226L79.5038 6.40693C79.6091 6.31453 79.7155 6.22514 79.8218 6.13675L79.9051 6.06645C80.0135 5.97505 80.1228 5.88666 80.2342 5.79827L80.3064 5.74102C80.4228 5.64963 80.5371 5.56024 80.6535 5.47085L80.7047 5.43368C81.2143 5.05302 81.7491 4.68843 82.2958 4.35196L82.4032 4.28467C82.4754 4.24048 82.5477 4.1993 82.6199 4.15711L82.7333 4.09082C82.7844 4.06069 82.8336 4.03157 82.8837 4.00344C82.9449 3.96829 83.0071 3.93314 83.0683 3.89899L83.1827 3.83571C83.2118 3.81964 83.2399 3.80357 83.269 3.7885C83.4997 2.43861 83.7415 1.28659 84.0084 0.271156L84.0766 0.000976562C82.66 0.470023 81.3959 0.935053 80.2713 1.40209H80.2703C75.0905 3.5595 72.8744 5.83343 72.3808 9.26038C72.0858 11.3033 72.4048 13.755 73.074 16.8334C73.1111 16.6908 73.1482 16.5502 73.1864 16.4126L73.1874 16.4106Z" fill="#252A2D"/>
<path d="M78.8114 21.8895L78.9248 21.6745C78.978 21.5741 79.0291 21.4697 79.0833 21.3662L79.2157 21.1081C79.2689 20.9976 79.3221 20.8861 79.3762 20.7746L79.4766 20.5667C79.5338 20.4452 79.5889 20.3216 79.6451 20.1971L79.7284 20.0153C79.8939 19.6417 80.0554 19.258 80.2049 18.8743L80.2651 18.7186C80.3213 18.577 80.3755 18.4354 80.4297 18.2898L80.5069 18.0758C80.552 17.9503 80.5962 17.8237 80.6423 17.6982C80.6634 17.6379 80.6815 17.5807 80.7025 17.5204L80.7256 17.4561C80.7647 17.3356 80.8059 17.2161 80.846 17.0956C80.8701 17.0222 80.8932 16.9489 80.9172 16.8746L80.9283 16.8395C80.9654 16.7219 81.0035 16.6044 81.0386 16.4869C81.0667 16.3975 81.0928 16.3081 81.1199 16.2187C81.155 16.1022 81.1881 15.9857 81.2212 15.8682C81.2473 15.7758 81.2744 15.6834 81.2995 15.591C81.3316 15.4745 81.3637 15.36 81.3948 15.2445C81.4189 15.1491 81.4439 15.0547 81.469 14.9592C81.4991 14.8447 81.5272 14.7292 81.5563 14.6137C81.5804 14.5163 81.6035 14.4189 81.6265 14.3205C81.6546 14.206 81.6807 14.0925 81.7058 13.978C81.7289 13.8775 81.7519 13.7791 81.773 13.6777C81.7981 13.5632 81.8222 13.4497 81.8472 13.3342C81.8683 13.2327 81.8894 13.1313 81.9084 13.0298C81.9285 12.9314 81.9476 12.832 81.9656 12.7325L81.9917 12.5949C81.9987 12.5628 82.0037 12.5306 82.0108 12.4995L81.8352 12.5849C81.7589 12.6231 81.6817 12.6602 81.6055 12.6984L81.3857 12.8109C81.2774 12.8661 81.168 12.9214 81.0607 12.9776C80.9895 13.0138 80.9192 13.0509 80.851 13.0881C80.7386 13.1483 80.6243 13.2086 80.5129 13.2699L80.3133 13.3783C80.1949 13.4426 80.0785 13.5079 79.9621 13.5722L79.7745 13.6787C79.6521 13.749 79.5307 13.8183 79.4083 13.8886L79.2338 13.993C79.1074 14.0684 78.979 14.1437 78.8515 14.22L78.69 14.3174C78.5576 14.3988 78.4232 14.4812 78.2917 14.5645L78.1432 14.6549C78.0038 14.7443 77.8633 14.8347 77.7219 14.9251L77.5955 15.0065C77.446 15.1039 77.2975 15.2023 77.146 15.3017L77.0457 15.369C76.8832 15.4775 76.7186 15.589 76.5561 15.7015L76.4939 15.7447C76.3113 15.8702 76.1277 15.9988 75.9441 16.1283C75.1767 16.6707 74.3991 17.2523 73.6216 17.8619L73.3999 18.0357C74.2376 20.4552 76.1408 21.8583 78.8144 21.8905L78.8114 21.8895Z" fill="#252A2D"/>
<path d="M93.3585 19.685C93.3585 20.8511 92.4225 21.7761 91.2316 21.7761C90.0408 21.7761 89.0947 20.8511 89.0947 19.685C89.0947 18.5189 90.0428 17.6079 91.2457 17.6079C92.4486 17.6079 93.3585 18.5189 93.3585 19.685ZM89.6264 19.685C89.6264 20.611 90.3207 21.3442 91.2467 21.3442C92.1456 21.3573 92.8308 20.611 92.8308 19.698C92.8308 18.785 92.1466 18.0267 91.2226 18.0267C90.2986 18.0267 89.6274 18.773 89.6274 19.685M90.9066 20.7627H90.424V18.6856C90.6146 18.6585 90.8775 18.6203 91.2226 18.6203C91.6139 18.6203 91.7915 18.6856 91.9319 18.7861C92.0573 18.8734 92.1466 19.0261 92.1466 19.228C92.1466 19.4811 91.954 19.6478 91.7142 19.7221V19.7482C91.9189 19.8115 92.0202 19.9742 92.0814 20.2545C92.1466 20.5708 92.1968 20.6843 92.2339 20.7607H91.7262C91.664 20.6843 91.6259 20.5066 91.5647 20.2545C91.5236 20.0365 91.3972 19.9371 91.1323 19.9371H90.9046V20.7617L90.9066 20.7627ZM90.9186 19.5976H91.1454C91.4112 19.5976 91.6259 19.5082 91.6259 19.2933C91.6259 19.1034 91.4845 18.9749 91.1825 18.9749C91.0571 18.9749 90.9698 18.9889 90.9176 19.002V19.5986L90.9186 19.5976Z" fill="#252A2D"/>
</g>
</g>
</svg>
